<?xml version="1.0" encoding="utf-8"?>
<!-- Generator: Adobe Illustrator 21.1.0, SVG Export Plug-In . SVG Version: 6.00 Build 0)  -->
<svg version="1.1" id="Layer_1" xmlns="http://www.w3.org/2000/svg" xmlns:xlink="http://www.w3.org/1999/xlink" x="0px" y="0px"
	 width="228px" height="50px" viewBox="0 0 228 50" style="enable-background:new 0 0 228 50;" xml:space="preserve">
<style type="text/css">
	.st0{fill:#010101;}
</style>
<g>
	<g>
		<path class="st0" d="M13.6,3.7v24.5h-2.9V3.7H1.2V1h22v2.7H13.6z"/>
		<path class="st0" d="M64.4,28.2V15.1H48.3v13.1h-2.9V1h2.9v11.5h16.1V1h2.9v27.2H64.4z"/>
		<path class="st0" d="M110.3,28.2l-6.2-11.5h-8.8v11.5h-2.9V1H104c5.2,0,8.8,3,8.8,7.7c0,3.8-2.3,6.4-5.8,7.5l6.5,12H110.3z
			 M104,3.7h-8.7V14h8.8c3.6,0,5.7-2.1,5.7-5.1C109.8,5.7,107.5,3.7,104,3.7z"/>
		<path class="st0" d="M136.5,28.2V1h2.9v27.2H136.5z"/>
		<path class="st0" d="M185.3,1l-10.6,27.2h-2.9L161.3,1h3.1l9,23.9L182.4,1H185.3z"/>
		<path class="st0" d="M207.2,28.2V1H226v2.7h-15.9v8.8h13.8v2.7h-13.8v10.4h16.3v2.7H207.2z"/>
	</g>
	<g>
		<path class="st0" d="M7.9,43c-0.5-0.8-1.2-1.2-2.2-1.2c-1.6,0-2.6,1.2-2.6,3c0,1.8,1,3,2.6,3c1,0,1.7-0.5,2.2-1.3l1.2,0.7
			C8.4,48.3,7.2,49,5.7,49c-2.4,0-4.1-1.8-4.1-4.3c0-2.5,1.6-4.3,4.1-4.3c1.4,0,2.6,0.6,3.4,1.8L7.9,43z"/>
		<path class="st0" d="M20.3,49c-2.5,0-4.1-1.9-4.1-4.3c0-2.4,1.6-4.3,4.1-4.3c2.5,0,4.1,1.9,4.1,4.3C24.4,47.1,22.8,49,20.3,49z
			 M20.3,41.8c-1.6,0-2.6,1.2-2.6,2.9c0,1.7,1,2.9,2.6,2.9c1.6,0,2.6-1.2,2.6-2.9C22.9,43,21.9,41.8,20.3,41.8z"/>
		<path class="st0" d="M37.5,48.8l-3.9-6.4v6.4h-1.4v-8.3h1.8l3.8,6.2v-6.2h1.4v8.3H37.5z"/>
		<path class="st0" d="M53.6,42l-1.1,0.7c-0.5-0.7-1.3-1-2.2-1c-0.8,0-1.5,0.3-1.5,1.1c0,0.8,0.8,1,1.8,1.2c1.6,0.3,3.1,0.8,3.1,2.5
			c0,1.5-1.2,2.6-3.3,2.6c-1.6,0-2.9-0.7-3.5-1.8l1.2-0.7c0.6,0.9,1.5,1.3,2.4,1.3c1,0,1.7-0.4,1.7-1.2c0-0.9-0.9-1-2.1-1.3
			c-1.5-0.3-2.9-0.8-2.9-2.4c0-1.5,1.3-2.4,3-2.4C51.6,40.4,52.8,40.9,53.6,42z"/>
		<path class="st0" d="M67.4,43c-0.5-0.8-1.2-1.2-2.2-1.2c-1.6,0-2.6,1.2-2.6,3c0,1.8,1,3,2.6,3c1,0,1.7-0.5,2.2-1.3l1.2,0.7
			c-0.7,1.2-1.9,1.9-3.4,1.9c-2.4,0-4.1-1.8-4.1-4.3c0-2.5,1.6-4.3,4.1-4.3c1.4,0,2.6,0.6,3.4,1.8L67.4,43z"/>
		<path class="st0" d="M76.3,48.8v-8.3h1.4v8.3H76.3z"/>
		<path class="st0" d="M89.7,49c-2.5,0-4.1-1.9-4.1-4.3c0-2.4,1.6-4.3,4.1-4.3c2.5,0,4.1,1.9,4.1,4.3C93.8,47.1,92.2,49,89.7,49z
			 M89.7,41.8c-1.6,0-2.6,1.2-2.6,2.9c0,1.7,1,2.9,2.6,2.9c1.6,0,2.6-1.2,2.6-2.9C92.3,43,91.3,41.8,89.7,41.8z"/>
		<path class="st0" d="M108.5,45.7c0,2.1-1.4,3.3-3.5,3.3c-2,0-3.5-1.2-3.5-3.3v-5.1h1.4v5.1c0,1.2,0.7,1.9,2,1.9c1.3,0,2-0.7,2-1.9
			v-5.1h1.4V45.7z"/>
		<path class="st0" d="M122.7,42l-1.1,0.7c-0.5-0.7-1.3-1-2.2-1c-0.8,0-1.5,0.3-1.5,1.1c0,0.8,0.8,1,1.8,1.2
			c1.6,0.3,3.1,0.8,3.1,2.5c0,1.5-1.2,2.6-3.3,2.6c-1.6,0-2.9-0.7-3.5-1.8l1.2-0.7c0.6,0.9,1.5,1.3,2.4,1.3c1,0,1.7-0.4,1.7-1.2
			c0-0.9-0.9-1-2.1-1.3c-1.5-0.3-2.9-0.8-2.9-2.4c0-1.5,1.3-2.4,3-2.4C120.8,40.4,122,40.9,122.7,42z"/>
		<path class="st0" d="M138.1,41.8V44h4v1.3h-4v3.6h-1.5v-8.3h6.1v1.3H138.1z"/>
		<path class="st0" d="M155.4,48.8l-0.8-2.1h-3.4l-0.8,2.1h-1.6l3.2-8.3h1.7l3.2,8.3H155.4z M153,41.9l-1.3,3.7h2.6L153,41.9z"/>
		<path class="st0" d="M170.4,42l-1.1,0.7c-0.5-0.7-1.3-1-2.2-1c-0.8,0-1.5,0.3-1.5,1.1c0,0.8,0.8,1,1.8,1.2
			c1.6,0.3,3.1,0.8,3.1,2.5c0,1.5-1.2,2.6-3.3,2.6c-1.6,0-2.9-0.7-3.5-1.8l1.2-0.7c0.6,0.9,1.5,1.3,2.4,1.3c1,0,1.7-0.4,1.7-1.2
			c0-0.9-0.9-1-2.1-1.3c-1.5-0.3-2.9-0.8-2.9-2.4c0-1.5,1.3-2.4,3-2.4C168.5,40.4,169.7,40.9,170.4,42z"/>
		<path class="st0" d="M184,48.8v-3.7h-4.1v3.7h-1.5v-8.3h1.5v3.2h4.1v-3.2h1.5v8.3H184z"/>
		<path class="st0" d="M193.8,48.8v-8.3h1.4v8.3H193.8z"/>
		<path class="st0" d="M207.2,49c-2.5,0-4.1-1.9-4.1-4.3c0-2.4,1.6-4.3,4.1-4.3c2.5,0,4.1,1.9,4.1,4.3C211.3,47.1,209.7,49,207.2,49
			z M207.2,41.8c-1.6,0-2.6,1.2-2.6,2.9c0,1.7,1,2.9,2.6,2.9c1.6,0,2.6-1.2,2.6-2.9C209.8,43,208.8,41.8,207.2,41.8z"/>
		<path class="st0" d="M224.4,48.8l-3.9-6.4v6.4h-1.4v-8.3h1.8l3.8,6.2v-6.2h1.4v8.3H224.4z"/>
	</g>
</g>
</svg>
